#define cd_width 20
#define cd_height 20
static char cd_bits[] = {
 0x00,0x00,0x00,0x40,0x0f,0x00,0x40,0x29,0x00,0x20,0x20,0x00,0x10,0x40,0x00,
 0x0c,0x80,0x00,0x04,0x00,0x01,0x02,0x05,0x03,0x82,0x07,0x01,0x06,0x05,0x02,
 0x82,0x07,0x01,0x04,0x00,0x03,0x02,0x80,0x00,0x08,0x80,0x00,0x10,0x40,0x00,
 0x20,0x30,0x00,0xe0,0x0f,0x00,0x80,0x08,0x00,0x00,0x00,0x00,0x00,0x00,0x00};
