#define cd_width 20
#define cd_height 20
static char cd_bits[] = {
   0x80, 0x0f, 0x00, 0x60, 0x3e, 0x00, 0x18, 0xf2, 0x00, 0x04, 0x2e, 0x01,
   0x04, 0x12, 0x01, 0x02, 0x0e, 0x02, 0x02, 0x02, 0x02, 0x01, 0x07, 0x04,
   0x81, 0x08, 0x04, 0x81, 0x08, 0x04, 0x81, 0x08, 0x04, 0x01, 0x07, 0x04,
   0x02, 0x02, 0x02, 0x82, 0x03, 0x02, 0x44, 0x02, 0x01, 0xa4, 0x03, 0x01,
   0x78, 0xc2, 0x00, 0xe0, 0x33, 0x00, 0x80, 0x0f, 0x00, 0x00, 0x00, 0x00};
