#define cd_width 16
#define cd_height 16
static char cd_bits[] = {
   0x00, 0x00, 0xe0, 0x03, 0x10, 0x04, 0x08, 0x08, 0x04, 0x10, 0x02, 0x20,
   0xc2, 0x21, 0x42, 0x21, 0xc2, 0x21, 0x02, 0x20, 0x04, 0x10, 0x08, 0x08,
   0x10, 0x04, 0xe0, 0x03, 0x00, 0x00, 0x00, 0x00};
