#define cd_mute_width 16
#define cd_mute_height 16
static char cd_mute_bits[] = {
   0x55, 0x55, 0xea, 0xab, 0x55, 0x55, 0xaa, 0xaa, 0x55, 0x55, 0xaa, 0xaa,
   0xd7, 0x75, 0xea, 0xab, 0xd7, 0x75, 0xaa, 0xaa, 0x55, 0x55, 0xaa, 0xaa,
   0x55, 0x55, 0xea, 0xab, 0x55, 0x55, 0xaa, 0xaa};
