#define head_width 16
#define head_height 16
static char head_bits[] = {
   0x80, 0x01, 0xf0, 0x0f, 0x78, 0x1e, 0x0c, 0x30, 0x0c, 0x30, 0x0c, 0x30,
   0x06, 0x60, 0x06, 0x60, 0x16, 0x68, 0x2e, 0x74, 0x37, 0xec, 0x2f, 0xf4,
   0x36, 0x6c, 0x28, 0x14, 0x10, 0x08, 0x00, 0x00};
