#define head_width 20
#define head_height 20
static char head_bits[] = {
   0x00, 0x00, 0x00, 0x80, 0x1f, 0x00, 0xe0, 0x7f, 0x00, 0x70, 0xe0, 0x00,
   0x18, 0x80, 0x01, 0x0c, 0x00, 0x03, 0x0c, 0x00, 0x03, 0x06, 0x00, 0x06,
   0x06, 0x00, 0x06, 0x06, 0x00, 0x06, 0x06, 0x00, 0x06, 0x1e, 0x80, 0x07,
   0x2c, 0x40, 0x03, 0x2e, 0x40, 0x07, 0x2e, 0x40, 0x07, 0x2e, 0x40, 0x07,
   0x2e, 0x40, 0x07, 0x2c, 0x40, 0x03, 0x18, 0x80, 0x01, 0x00, 0x00, 0x00};
