#define head_width 20
#define head_height 20
static char head_bits[] = {
 0x00,0x06,0x00,0xe0,0x7f,0x00,0xe0,0x7d,0x00,0x70,0xd1,0x01,0x1c,0x80,0x01,
 0x18,0x80,0x03,0x1c,0x80,0x01,0x0c,0x00,0x07,0x0e,0x00,0x03,0x0e,0x00,0x07,
 0x26,0x40,0x07,0x5c,0xa0,0x07,0xef,0xb0,0x06,0x6f,0x60,0x0f,0x5f,0xb0,0x0f,
 0xee,0x60,0x07,0x50,0xb0,0x00,0x50,0x40,0x00,0x20,0x40,0x00,0x00,0x00,0x00};
