#define head_mute_width 16
#define head_mute_height 16
static char head_mute_bits[] = {
   0xd5, 0x55, 0xfa, 0xaf, 0x7d, 0x5f, 0xae, 0xba, 0x5d, 0x75, 0xae, 0xba,
   0x57, 0x75, 0xae, 0xea, 0x57, 0x7d, 0xbe, 0xfe, 0x7f, 0xfd, 0xbf, 0xfe,
   0x7f, 0x7d, 0xba, 0xbe, 0x55, 0x5d, 0xaa, 0xaa};
