#define left_width 8
#define left_height 8
static unsigned char left_bits[] = {
   0x20, 0x30, 0x38, 0x3c, 0x3c, 0x38, 0x30, 0x20};
