#define line_out_mute_width 16
#define line_out_mute_height 16
static char line_out_mute_bits[] = {
   0x55, 0x55, 0xaa, 0xaa, 0x55, 0x5f, 0xaa, 0xaa, 0xdd, 0x75, 0xae, 0xaa,
   0x77, 0xd5, 0xff, 0xaf, 0xff, 0xd7, 0xae, 0xaa, 0x7d, 0xd5, 0xea, 0xea,
   0xd5, 0x75, 0xaa, 0xbf, 0x55, 0x55, 0xaa, 0xaa};
