#define line_in_width 20
#define line_in_height 20
static char line_in_bits[] = {
 0x00,0x00,0x00,0x00,0x00,0x00,0x00,0x2a,0x00,0x00,0x7d,0x00,0x00,0x81,0x00,
 0xc0,0x00,0x03,0x20,0x04,0x04,0x20,0x18,0x04,0x60,0x3c,0x06,0xfe,0x7f,0x02,
 0xfe,0x7f,0x04,0x60,0x38,0x06,0x20,0x1c,0x04,0x60,0x0c,0x02,0x40,0x00,0x01,
 0x80,0x81,0x00,0x00,0x7e,0x00,0x00,0x02,0x00,0x00,0x00,0x00,0x00,0x00,0x00};
