#define line_out_width 16
#define line_out_height 16
static char line_out_bits[] = {
   0x00, 0x00, 0x00, 0x00, 0x00, 0x1f, 0x80, 0x20, 0x48, 0x40, 0x2c, 0x80,
   0x26, 0x80, 0xff, 0x87, 0xff, 0x87, 0x26, 0x80, 0x2c, 0x80, 0x48, 0x40,
   0x80, 0x20, 0x00, 0x1f, 0x00, 0x00, 0x00, 0x00};
