#define line_out_width 20
#define line_out_height 20
static char line_out_bits[] = {
 0x00,0x00,0x00,0x00,0x00,0x00,0x00,0x54,0x00,0x00,0xf8,0x01,0x00,0x02,0x02,
 0x90,0x01,0x04,0x98,0x00,0x08,0x5c,0x00,0x08,0xce,0x00,0x0c,0xff,0x3f,0x08,
 0xff,0x3f,0x08,0x4e,0x09,0x08,0xdc,0x00,0x08,0x58,0x00,0x0c,0x10,0x01,0x02,
 0x00,0x02,0x01,0x00,0xfc,0x00,0x00,0x88,0x00,0x00,0x00,0x00,0x00,0x00,0x00};
