#define line_in_mute_width 16
#define line_in_mute_height 16
static char line_in_mute_bits[] = {
   0x55, 0x55, 0xaa, 0xaa, 0xd5, 0x5f, 0xea, 0xba, 0x75, 0x75, 0xba, 0xeb,
   0x55, 0x57, 0xfe, 0xef, 0xff, 0x5f, 0xba, 0xee, 0x55, 0x57, 0xea, 0xba,
   0x55, 0x55, 0xaa, 0xaf, 0x55, 0x55, 0xaa, 0xaa};
