#define line_out_width 20
#define line_out_height 20
static char line_out_bits[] = {
   0x00, 0x00, 0x00, 0x00, 0x1f, 0x00, 0xc0, 0x7f, 0x00, 0xe0, 0xe0, 0x00,
   0x10, 0x80, 0x01, 0xe8, 0x00, 0x03, 0x70, 0x00, 0x02, 0x38, 0x00, 0x04,
   0xfc, 0x1f, 0x04, 0xfe, 0x1f, 0x04, 0xfe, 0x1f, 0x04, 0xfc, 0x1f, 0x04,
   0x38, 0x00, 0x06, 0x70, 0x00, 0x02, 0xe8, 0x00, 0x03, 0x10, 0x80, 0x01,
   0xe0, 0xe0, 0x00, 0xc0, 0x7f, 0x00, 0x00, 0x1f, 0x00, 0x00, 0x00, 0x00};
