#define line_in_width 16
#define line_in_height 16
static char line_in_bits[] = {
   0x00, 0x00, 0x00, 0x00, 0x80, 0x0f, 0x40, 0x10, 0x20, 0x20, 0x10, 0x43,
   0x10, 0x46, 0xfe, 0x4f, 0xfe, 0x4f, 0x10, 0x46, 0x10, 0x43, 0x20, 0x20,
   0x40, 0x10, 0x80, 0x0f, 0x00, 0x00, 0x00, 0x00};
