#define mic_width 20
#define mic_height 20
static char mic_bits[] = {
 0x00,0xc0,0x01,0x00,0x60,0x07,0x00,0xb0,0x06,0x00,0xb8,0x0d,0x00,0x48,0x09,
 0x00,0xb8,0x0e,0x00,0x7c,0x07,0x00,0x7c,0x03,0x00,0xff,0x00,0x00,0x3f,0x00,
 0xc0,0x0f,0x00,0xe0,0x1f,0x00,0xe0,0x0f,0x00,0xf0,0x1f,0x00,0xf8,0x0d,0x00,
 0x70,0x1c,0x00,0x08,0x0c,0x00,0x04,0x1c,0x00,0x02,0x0c,0x00,0x06,0x1c,0x00};
