#define mic_width 16
#define mic_height 16
static char mic_bits[] = {
   0x00, 0x38, 0x00, 0x6c, 0x00, 0xd6, 0x00, 0xaa, 0x00, 0xd6, 0x00, 0x6f,
   0x80, 0x3f, 0xc0, 0x07, 0xe0, 0x03, 0xf0, 0x03, 0xf8, 0x03, 0x78, 0x03,
   0x38, 0x03, 0x04, 0x03, 0x02, 0x03, 0x02, 0x03};
