#define mic_mute_width 16
#define mic_mute_height 16
static char mic_mute_bits[] = {
   0x55, 0x7d, 0xaa, 0xee, 0x55, 0xd7, 0xaa, 0xaa, 0x55, 0xd7, 0xaa, 0xef,
   0xd5, 0x7f, 0xea, 0xaf, 0xf5, 0x57, 0xfa, 0xab, 0xfd, 0x57, 0xfa, 0xab,
   0x7d, 0x57, 0xae, 0xab, 0x57, 0x57, 0xaa, 0xab};
