#define right_width 8
#define right_height 8
static unsigned char right_bits[] = {
   0x04, 0x0c, 0x1c, 0x3c, 0x3c, 0x1c, 0x0c, 0x04};
