#define speaker_width 20
#define speaker_height 20
static char speaker_bits[] = {
 0x00,0x04,0x00,0x00,0x06,0x00,0x00,0x47,0x00,0x80,0x47,0x00,0xc0,0x8f,0x00,
 0xe0,0x27,0x03,0xff,0x47,0x04,0xff,0x4f,0x04,0xff,0x47,0x02,0xff,0x87,0x08,
 0xff,0x87,0x09,0xff,0x4f,0x04,0xff,0x47,0x06,0xf7,0x67,0x02,0xe0,0x17,0x01,
 0xc0,0x87,0x00,0x80,0x47,0x00,0x00,0x4f,0x00,0x00,0x06,0x00,0x00,0x04,0x00};
