#define speaker_mute_width 16
#define speaker_mute_height 16
static char speaker_mute_bits[] = {
   0x55, 0x55, 0xaa, 0xab, 0xd5, 0x5d, 0xea, 0xbb, 0xf5, 0x75, 0xff, 0xeb,
   0xff, 0x5d, 0xff, 0xbb, 0xff, 0xd5, 0xff, 0xeb, 0xff, 0x5d, 0xfa, 0xaf,
   0xf5, 0x55, 0xea, 0xab, 0xd5, 0x55, 0xaa, 0xab};
