#define speaker_width 16
#define speaker_height 16
static char speaker_bits[] = {
   0x00, 0x01, 0x80, 0x01, 0xc0, 0x09, 0xe0, 0x11, 0xf0, 0x25, 0xff, 0x49,
   0xff, 0x49, 0xff, 0x91, 0xff, 0x91, 0xff, 0x49, 0xff, 0x49, 0xf0, 0x25,
   0xe0, 0x11, 0xc0, 0x09, 0x80, 0x01, 0x00, 0x01};
